<?xml version="1.0" encoding="UTF-8"?>
<svg width="525px" height="152px" viewBox="0 0 525 152" version="1.1" xmlns="http://www.w3.org/2000/svg" xmlns:xlink="http://www.w3.org/1999/xlink">
    <title>Powered-by-Flow-Mac-Cloud-Badge</title>
    <g id="Page-1" stroke="none" stroke-width="1" fill="none" fill-rule="evenodd">
        <rect id="Rectangle" stroke="#000000" x="0.5" y="0.5" width="524" height="139" rx="5"></rect>
        <g id="FLOW_Symbol_BLUE_rgb" transform="translate(50.000000, 43.000000)" fill="#276EF1" fill-rule="nonzero">
            <path d="M168,56.8 C164.9,56.8 162.3,56.2 160.3,55.2 C158.3,54.1 156.6,52.7 155.4,51 C154.2,49.3 153.4,47.5 152.9,45.6 C152.5,43.7 152.2,41.9 152.2,40.2 L152.2,17.9 C152.2,16.4 152,15 151.7,13.6 C151.4,12.3 150.8,11.1 150.1,10 C149.4,9 148.4,8.2 147.2,7.5 C146,6.9 144.5,6.6 142.7,6.6 C140.9,6.6 139.4,6.9 138.2,7.5 C137,8.1 136,9 135.3,10 C134.6,11 134,12.2 133.7,13.6 C133.4,15 133.2,16.4 133.2,17.9 L133.2,40.2 C133.2,41.9 133,43.7 132.5,45.6 C132,47.5 131.2,49.4 130,51 C128.8,52.7 127.2,54.1 125.2,55.2 C123.2,56.3 120.6,56.8 117.5,56.8 C114.4,56.8 111.8,56.2 109.8,55.2 C107.8,54.1 106.1,52.7 104.9,51 C103.7,49.3 102.9,47.5 102.4,45.6 C102,43.7 101.7,41.9 101.7,40.2 L101.7,17.9 C101.7,16.4 101.5,15 101.2,13.6 C100.9,12.3 100.3,11.1 99.6,10 C98.9,9 97.9,8.2 96.7,7.5 C95.5,6.9 94,6.6 92.2,6.6 C90.4,6.6 88.9,6.9 87.7,7.5 C86.5,8.1 85.5,9 84.8,10 C84.1,11 83.5,12.2 83.2,13.6 C82.9,15 82.7,16.4 82.7,17.9 L82.7,40.2 C82.7,41.9 82.5,43.7 82,45.6 C81.5,47.5 80.7,49.4 79.5,51 C78.3,52.7 76.7,54.1 74.7,55.2 C72.7,56.3 70.1,56.8 67,56.8 C63.9,56.8 61.3,56.2 59.3,55.2 C57.3,54.1 55.7,52.7 54.5,51 C53.3,49.3 52.5,47.5 52,45.6 C51.6,43.7 51.3,41.9 51.3,40.2 L51.3,17.9 C51.3,16.4 51.1,15 50.8,13.6 C50.5,12.3 49.9,11.1 49.2,10 C48.5,9 47.5,8.2 46.3,7.5 C45.1,6.9 43.6,6.6 41.8,6.6 C40,6.6 38.5,6.9 37.3,7.5 C36.1,8.1 35.1,9 34.4,10 C33.7,11 33.1,12.2 32.8,13.6 C32.5,15 32.3,16.4 32.3,17.9 L32.3,40.2 C32.3,41.9 32.1,43.7 31.6,45.6 C31.1,47.6 30.3,49.4 29.1,51 C27.9,52.7 26.3,54.1 24.2,55.2 C22.2,56.3 19.6,56.8 16.5,56.8 C13.4,56.8 10.8,56.2 8.8,55.2 C6.8,54.1 5.2,52.7 4,51 C2.8,49.3 2,47.5 1.5,45.6 C1.1,43.7 0.8,41.9 0.8,40.2 L0.8,2.2 L7,2.2 L7,39.8 C7,41.3 7.2,42.7 7.5,44.1 C7.8,45.4 8.4,46.6 9.1,47.7 C9.8,48.7 10.8,49.5 12,50.2 C13.2,50.8 14.7,51.1 16.5,51.1 C18.3,51.1 19.8,50.8 21,50.2 C22.2,49.6 23.2,48.7 23.9,47.7 C24.6,46.7 25.2,45.5 25.5,44.1 C25.8,42.7 26,41.3 26,39.8 L26,17.5 C26,15.8 26.2,14 26.7,12.1 C27.2,10.1 28,8.3 29.2,6.7 C30.4,5 32,3.6 34.1,2.5 C36.1,1.4 38.7,0.9 41.8,0.9 C44.9,0.9 47.5,1.5 49.5,2.5 C51.5,3.6 53.1,5 54.3,6.7 C55.5,8.4 56.3,10.2 56.8,12.1 C57.2,14 57.5,15.8 57.5,17.5 L57.5,39.8 C57.5,41.3 57.7,42.7 58,44.1 C58.3,45.4 58.9,46.6 59.6,47.7 C60.3,48.7 61.3,49.5 62.5,50.2 C63.7,50.8 65.2,51.1 67,51.1 C68.8,51.1 70.3,50.8 71.5,50.2 C72.7,49.6 73.7,48.7 74.4,47.7 C75.1,46.7 75.7,45.5 76,44.1 C76.3,42.7 76.5,41.3 76.5,39.8 L76.5,17.5 C76.5,15.8 76.7,14 77.2,12.1 C77.7,10.1 78.5,8.3 79.7,6.7 C80.9,5 82.5,3.6 84.6,2.5 C86.6,1.4 89.2,0.9 92.3,0.9 C95.4,0.9 98,1.5 100,2.5 C102,3.6 103.6,5 104.8,6.7 C106,8.4 106.8,10.2 107.3,12.1 C107.7,14 108,15.8 108,17.5 L108,39.8 C108,41.3 108.2,42.7 108.5,44.1 C108.8,45.4 109.4,46.6 110.1,47.7 C110.8,48.7 111.8,49.5 113,50.2 C114.2,50.8 115.7,51.1 117.5,51.1 C119.3,51.1 120.8,50.8 122,50.2 C123.2,49.6 124.2,48.7 124.9,47.7 C125.6,46.7 126.2,45.5 126.5,44.1 C126.8,42.7 127,41.3 127,39.8 L127,17.5 C127,15.8 127.2,14 127.7,12.1 C128.2,10.1 129,8.3 130.2,6.7 C131.4,5 133,3.6 135.1,2.5 C137.1,1.4 139.7,0.9 142.8,0.9 C145.9,0.9 148.5,1.5 150.5,2.5 C152.5,3.6 154.1,5 155.3,6.7 C156.5,8.4 157.3,10.2 157.8,12.1 C158.2,14 158.5,15.8 158.5,17.5 L158.5,39.8 C158.5,41.3 158.7,42.7 159,44.1 C159.3,45.4 159.9,46.6 160.6,47.7 C161.3,48.7 162.3,49.5 163.5,50.2 C164.7,50.8 166.2,51.1 168,51.1 C169.8,51.1 171.3,50.8 172.5,50.2 C173.7,49.6 174.7,48.7 175.4,47.7 C176.1,46.7 176.7,45.5 177,44.1 C177.3,42.7 177.5,41.3 177.5,39.8 L177.5,2.1 L183.7,2.1 L183.7,40.1 C183.7,41.8 183.5,43.6 183,45.5 C182.5,47.4 181.7,49.3 180.5,50.9 C179.3,52.6 177.7,54 175.7,55.1 C173.7,56.2 171.1,56.8 168,56.8 Z" id="Path"></path>
        </g>
        <g id="Flow-Mac-Cloud" transform="translate(265.000000, 39.000000)" fill="#000000" letter-spacing="-0.9" line-spacing="34">
            <text font-family="AvenirNext-Medium, Avenir Next" font-size="30" font-weight="400">
                <tspan x="0" y="59">Flow Mac Cloud</tspan>
            </text>
            <text id="Powered-by" font-family="AvenirNext-Regular, Avenir Next" font-size="22" font-weight="normal">
                <tspan x="0" y="22">Powered by</tspan>
            </text>
        </g>
    </g>
</svg>